<svg width="233" height="30" viewBox="0 0 233 30" fill="none" xmlns="http://www.w3.org/2000/svg">
<path d="M30.6 29H23.32L22.96 18.64L22.92 16.92C22.8667 15.32 22.84 14.1067 22.84 13.28C22.84 11.28 22.92 9.28 23.08 7.28L19.28 26.12H12.28L8.24 7.28C8.48 10.4 8.6 13.1467 8.6 15.52C8.6 16.88 8.58667 17.92 8.56 18.64L8.24 29H0.96L3 1.2H12.2L15.92 19.64L19.28 1.2H28.52L30.6 29ZM48.3225 29L47.0825 23.32H39.7225L38.4825 29H30.8025L39.0425 1.2H47.9225L56.1625 29H48.3225ZM40.8825 18.04H45.9225L43.4025 6.48L40.8825 18.04ZM66.9906 18.76H64.9506V29H57.5506V1.2H67.1906C71.1106 1.2 74.0306 1.90667 75.9506 3.32C77.8973 4.73333 78.8706 6.90667 78.8706 9.84C78.8706 11.6 78.4573 13.0667 77.6306 14.24C76.8306 15.4133 75.5373 16.4667 73.7506 17.4L80.6706 29H72.4306L66.9906 18.76ZM64.9506 13.72H67.4306C69.9906 13.72 71.2706 12.4267 71.2706 9.84C71.2706 8.64 70.9106 7.76 70.1906 7.2C69.4973 6.64 68.444 6.36 67.0306 6.36H64.9506V13.72ZM89.7553 1.2V29H82.3553V1.2H89.7553ZM111.496 1.2C115.896 1.2 119.429 2.2 122.096 4.2C124.762 6.17333 126.096 9.77333 126.096 15C126.096 24.3333 121.416 29 112.056 29H103.176V1.2H111.496ZM110.576 6.48V23.72H112.496C114.522 23.72 116.016 23.08 116.976 21.8C117.962 20.52 118.456 18.2533 118.456 15C118.456 12.76 118.216 11.0267 117.736 9.8C117.282 8.54667 116.616 7.68 115.736 7.2C114.882 6.72 113.789 6.48 112.456 6.48H110.576ZM146.988 1.2L146.228 6.44H136.748V12.36H145.028V17.44H136.748V23.76H146.868V29H129.348V1.2H146.988ZM159.494 0.479998C161.601 0.479998 163.454 0.786664 165.054 1.4C166.681 2.01333 168.134 2.93333 169.414 4.16L166.094 8.08C164.174 6.56 162.161 5.8 160.054 5.8C158.961 5.8 158.121 6.01333 157.534 6.44C156.974 6.84 156.694 7.41333 156.694 8.16C156.694 8.69333 156.841 9.13333 157.134 9.48C157.428 9.82667 157.921 10.16 158.614 10.48C159.308 10.8 160.401 11.2 161.894 11.68C164.748 12.5867 166.828 13.7333 168.134 15.12C169.468 16.48 170.134 18.3733 170.134 20.8C170.134 22.56 169.681 24.12 168.774 25.48C167.868 26.8133 166.548 27.8533 164.814 28.6C163.108 29.3467 161.094 29.72 158.774 29.72C154.348 29.72 150.734 28.3733 147.934 25.68L151.574 21.64C153.788 23.4533 156.094 24.36 158.494 24.36C159.748 24.36 160.721 24.0933 161.414 23.56C162.108 23 162.454 22.2667 162.454 21.36C162.454 20.72 162.321 20.2 162.054 19.8C161.788 19.3733 161.308 19 160.614 18.68C159.948 18.3333 158.961 17.96 157.654 17.56C154.508 16.5733 152.294 15.3867 151.014 14C149.734 12.6133 149.094 10.8667 149.094 8.76C149.094 7.10667 149.534 5.65333 150.414 4.4C151.321 3.14666 152.561 2.18666 154.134 1.52C155.734 0.826665 157.521 0.479998 159.494 0.479998ZM180.498 1.2V29H173.098V1.2H180.498ZM197.376 0.479998C201.083 0.479998 204.27 1.65333 206.936 4L203.296 7.8C202.283 7.08 201.363 6.56 200.536 6.24C199.736 5.89333 198.816 5.72 197.776 5.72C195.776 5.72 194.203 6.49333 193.056 8.04C191.936 9.58667 191.376 11.9467 191.376 15.12C191.376 17.44 191.563 19.28 191.936 20.64C192.31 21.9733 192.87 22.9333 193.616 23.52C194.39 24.1067 195.376 24.4 196.576 24.4C197.776 24.4 198.87 24.1467 199.856 23.64V17.92H196.696L195.976 12.84H207.016V26.68C205.576 27.64 203.95 28.3867 202.136 28.92C200.323 29.4533 198.536 29.72 196.776 29.72C188.083 29.72 183.736 24.84 183.736 15.08C183.736 12.04 184.323 9.42667 185.496 7.24C186.696 5.02667 188.323 3.34667 190.376 2.2C192.43 1.05333 194.763 0.479998 197.376 0.479998ZM232.753 29H223.433L216.393 8.08L216.513 8.92C216.779 10.76 216.979 12.4933 217.113 14.12C217.273 15.72 217.353 17.5467 217.353 19.6V29H210.793V1.2H219.913L227.193 22.2C226.873 20.2 226.619 18.4 226.433 16.8C226.273 15.2 226.193 13.36 226.193 11.28V1.2H232.753V29Z" fill="black"/>
</svg>
